<svg xmlns="http://www.w3.org/2000/svg" height="561pt" version="1.1" viewBox="-30 0 561 561.294" width="561pt">
<g id="surface1">
<path d="M 462.117188 372.226562 L 462.117188 337.523438 L 334.882812 337.523438 L 333.609375 347.703125 C 327.917969 393.601562 286.09375 426.199219 240.195312 420.507812 C 202.113281 415.785156 172.109375 385.78125 167.390625 347.703125 L 166.117188 337.523438 L 38.882812 337.523438 L 38.882812 372.226562 L 88.15625 372.226562 C 92.484375 391.714844 100.3125 410.257812 111.289062 426.9375 L 75.433594 462.796875 L 124.824219 511.839844 L 160.683594 475.984375 C 177.351562 486.972656 195.890625 494.8125 215.394531 499.117188 L 215.394531 549.664062 L 284.796875 549.664062 L 284.796875 498.882812 C 304.296875 494.582031 322.839844 486.738281 339.507812 475.75 L 375.367188 511.609375 L 424.527344 462.449219 L 388.898438 426.9375 C 399.886719 410.269531 407.730469 391.726562 412.03125 372.226562 Z M 462.117188 372.226562 " style=" stroke:none;fill-rule:nonzero;fill:rgb(29.803922%,68.235294%,80%);fill-opacity:1;" />
<path d="M 459.34375 264.304688 L 459.34375 241.171875 C 459.679688 155.542969 407.535156 78.4375 327.941406 46.847656 L 312.09375 40.484375 L 312.09375 11.566406 L 188.09375 11.566406 L 188.09375 40.601562 L 172.25 46.960938 C 92.65625 78.550781 40.511719 155.65625 40.847656 241.289062 L 40.847656 264.421875 L 11.582031 277.03125 L 11.582031 337.757812 L 488.722656 337.757812 L 488.722656 276.800781 Z M 459.34375 264.304688 " style=" stroke:none;fill-rule:nonzero;fill:rgb(94.901961%,62.352941%,20%);fill-opacity:1;" />
<path d="M 493 266.15625 L 470.675781 256.554688 L 470.675781 241.289062 C 470.988281 147.59375 411.871094 64 323.429688 33.082031 L 323.429688 11.566406 C 323.429688 5.183594 318.25 0 311.863281 0 L 188.09375 0 C 181.710938 0 176.527344 5.183594 176.527344 11.566406 L 176.527344 33.199219 C 88.089844 64.117188 28.96875 147.710938 29.28125 241.402344 L 29.28125 256.789062 L 7.1875 266.15625 C 2.90625 267.960938 0.132812 272.160156 0.132812 276.796875 L 0.132812 337.523438 C 0.132812 343.910156 5.3125 349.09375 11.699219 349.09375 L 26.734375 349.09375 L 26.734375 372.226562 C 26.734375 378.609375 31.917969 383.792969 38.300781 383.792969 L 79.828125 383.792969 C 83.769531 398.273438 89.566406 412.199219 97.0625 425.203125 L 67.679688 454.582031 C 63.195312 459.09375 63.195312 466.382812 67.679688 470.894531 L 116.84375 520.054688 C 121.351562 524.542969 128.640625 524.542969 133.152344 520.054688 L 162.53125 490.671875 C 175.5 498.167969 189.378906 503.953125 203.828125 507.90625 L 203.828125 549.433594 C 203.828125 555.816406 209.007812 561 215.394531 561 L 284.792969 561 C 291.179688 561 296.363281 555.816406 296.363281 549.433594 L 296.363281 507.90625 C 310.84375 503.964844 324.769531 498.179688 337.773438 490.671875 L 367.152344 520.054688 C 371.664062 524.542969 378.953125 524.542969 383.460938 520.054688 L 432.621094 470.894531 C 437.109375 466.382812 437.109375 459.09375 432.621094 454.582031 L 403.242188 425.203125 C 410.738281 412.203125 416.53125 398.273438 420.476562 383.792969 L 462.003906 383.792969 C 468.386719 383.792969 473.570312 378.609375 473.570312 372.226562 L 473.570312 349.09375 L 488.605469 349.09375 C 494.992188 349.09375 500.171875 343.910156 500.171875 337.523438 L 500.171875 276.796875 C 500.152344 272.125 497.316406 267.925781 493 266.15625 Z M 199.429688 23.25 L 300.296875 23.25 L 300.296875 216.535156 L 199.664062 216.535156 Z M 450.550781 360.660156 L 412.03125 360.660156 C 406.480469 360.53125 401.632812 364.371094 400.464844 369.796875 C 396.566406 387.910156 389.398438 405.15625 379.296875 420.691406 C 376.324219 425.261719 376.960938 431.289062 380.800781 435.152344 L 408.449219 462.796875 L 375.367188 495.648438 L 347.722656 468 C 343.859375 464.160156 337.832031 463.523438 333.261719 466.496094 C 317.726562 476.59375 300.480469 483.765625 282.367188 487.664062 C 276.941406 488.832031 273.101562 493.679688 273.230469 499.230469 L 273.230469 538.214844 L 226.960938 538.214844 L 226.960938 498.886719 C 227.089844 493.332031 223.25 488.488281 217.824219 487.320312 C 199.710938 483.433594 182.460938 476.261719 166.929688 466.152344 C 162.359375 463.179688 156.332031 463.8125 152.46875 467.65625 L 124.824219 495.300781 L 92.089844 462.566406 L 119.734375 434.921875 C 123.574219 431.058594 124.210938 425.03125 121.238281 420.460938 C 111.050781 405.019531 103.761719 387.855469 99.726562 369.796875 C 98.554688 364.371094 93.710938 360.53125 88.15625 360.660156 L 49.640625 360.660156 L 49.640625 349.09375 L 155.363281 349.09375 C 161.699219 401.351562 209.207031 438.574219 261.464844 432.226562 C 305.003906 426.9375 339.324219 392.632812 344.597656 349.09375 L 450.4375 349.09375 Z M 178.957031 349.09375 L 321.347656 349.09375 C 314.984375 388.445312 277.925781 415.1875 238.574219 408.824219 C 207.875 403.863281 183.804688 379.789062 178.84375 349.09375 C 178.84375 349.09375 178.957031 349.09375 178.957031 349.09375 Z M 477.15625 325.957031 L 23.148438 325.957031 L 23.148438 284.433594 L 45.472656 274.832031 C 49.753906 273.027344 52.53125 268.828125 52.53125 264.191406 L 52.53125 241.058594 C 52.277344 160.273438 101.457031 87.5625 176.527344 57.71875 L 176.527344 228.101562 C 176.527344 234.484375 181.710938 239.667969 188.09375 239.667969 L 312.09375 239.667969 C 318.476562 239.667969 323.660156 234.484375 323.660156 228.101562 L 323.660156 57.71875 C 398.859375 87.550781 448.097656 160.398438 447.773438 241.289062 L 447.773438 264.421875 C 447.773438 269.0625 450.550781 273.261719 454.832031 275.0625 L 477.15625 284.664062 Z M 477.15625 325.957031 " style=" stroke:none;fill-rule:nonzero;fill:rgb(22.745098%,19.607843%,16.862745%);fill-opacity:1;" />
</g>
</svg>