<svg id="Capa_1" enable-background="new 0 0 511 511" height="512" viewBox="0 0 511 511" width="512" xmlns="http://www.w3.org/2000/svg" xmlns:xlink="http://www.w3.org/1999/xlink"><linearGradient id="lg1"><stop offset=".00000083866" stop-color="#96d1f3"/><stop offset="1" stop-color="#ccfff4"/></linearGradient><linearGradient id="SVGID_1_" gradientUnits="userSpaceOnUse" x1="205.5" x2="205.5" xlink:href="#lg1" y1="413.5" y2="503.5"/><linearGradient id="SVGID_2_" gradientUnits="userSpaceOnUse" x1="305.5" x2="305.5" y1="413.5" y2="503.5"><stop offset=".00000036422" stop-color="#a8abff"/><stop offset="1" stop-color="#fac8ff"/></linearGradient><linearGradient id="SVGID_3_" gradientUnits="userSpaceOnUse" x1="386.5" x2="386.5" xlink:href="#lg1" y1="7.5" y2="119.5"/><linearGradient id="SVGID_4_" gradientUnits="userSpaceOnUse" x1="255.5" x2="255.5" y1="0" y2="511"><stop offset=".00000011981" stop-color="#174fa3"/><stop offset="1" stop-color="#b044af"/></linearGradient><g><g><path d="m155.5 413.5h100v90h-100z" fill="url(#SVGID_1_)"/><path d="m255.5 413.5h100v90h-100z" fill="url(#SVGID_2_)"/><path d="m356.5 164.5c0 8.284 6.716 15 15 15h30c8.284 0 15-6.716 15-15v-45h-60z" fill="#fff"/><path d="m385.618 7.506c-32.072.461-58.402 26.585-59.103 58.652-.497 22.764 11.696 42.711 29.985 53.295v.047h60v-.047c17.929-10.376 30-29.749 30-51.953 0-33.431-27.341-60.476-60.882-59.994z" fill="url(#SVGID_3_)"/><g fill="#fff"><circle cx="27.5" cy="359.5" r="20"/><circle cx="27.5" cy="259.5" r="20"/><path d="m453.5 279.5h50v110h-50z"/></g></g><path d="m118 451h-83v-65.048c11.528-3.274 20-13.889 20-26.452 0-4.335-1.012-8.437-2.806-12.087l44.609-44.609-10.606-10.607-44.048 44.048c-4.245-2.685-9.267-4.245-14.649-4.245-15.164 0-27.5 12.337-27.5 27.5 0 12.563 8.472 23.178 20 26.452v80.048h98v17.5h15v-50h-15zm-103-91.5c0-6.893 5.607-12.5 12.5-12.5s12.5 5.607 12.5 12.5-5.607 12.5-12.5 12.5-12.5-5.608-12.5-12.5zm183 106.5h-17.5v-15h17.5v-17.5h15v17.5h17.5v15h-17.5v17.5h-15zm132.5 0h-50v-15h50zm155.5-194v-70h-92v-15h7.5c12.406 0 22.5-10.094 22.5-22.5v-40.89c18.609-12.468 30-33.58 30-56.11 0-18.213-7.144-35.286-20.116-48.073-12.969-12.786-30.167-19.666-48.374-19.42-17.464.251-33.975 7.229-46.491 19.649-12.518 12.421-19.621 28.878-20.002 46.338-.506 23.154 10.885 44.842 29.983 57.618v17.388h-73.405l-9.74 13.916-25.355-40.568-25 40-25-40-25 40-24.437-39.099-19.313 25.751h-101.75v92.048c-11.528 3.274-20 13.889-20 26.452 0 15.163 12.336 27.5 27.5 27.5s27.5-12.337 27.5-27.5c0-12.563-8.472-23.178-20-26.452v-77.048h94.25l10.687-14.25 25.563 40.901 25-40 25 40 25-40 24.646 39.433 18.259-26.084h65.595v8.5c0 12.406 10.094 22.5 22.5 22.5h7.5v30h92v55h-25v125h25v54h-108v-45h-215v105h215v-45h123v-69h25v-125zm-446-12.5c0 6.893-5.607 12.5-12.5 12.5s-12.5-5.608-12.5-12.5c0-6.893 5.607-12.5 12.5-12.5s12.5 5.607 12.5 12.5zm369-117.5h-45v-15h45zm-74.987-75.678c.609-27.896 23.808-50.916 51.712-51.317.26-.004.519-.006.778-.006 13.888 0 26.948 5.349 36.851 15.11 10.089 9.946 15.646 23.225 15.646 37.391 0 18.049-9.404 34.929-24.664 44.5h-20.336v-35h22.5v-15h-60v15h22.5v35h-20.338c-15.652-9.81-25.054-27.141-24.649-45.678zm37.487 105.678c-4.136 0-7.5-3.364-7.5-7.5v-7.5h45v7.5c0 4.136-3.364 7.5-7.5 7.5zm-123.5 324h-85v-75h85zm100 0h-85v-75h85zm148-114h-35v-95h35z" fill="url(#SVGID_4_)"/></g></svg>