<svg height="512" viewBox="0 0 128 128" width="512" xmlns="http://www.w3.org/2000/svg"><g id="Circle_Grid" data-name="Circle Grid"><circle cx="64" cy="64" fill="#ef5261" r="64"/></g><g id="icon"><path d="m71.954 46.138-43.342 43.342a8.145 8.145 0 1 0 11.519 11.52l43.342-43.343zm-39.985 51.5a3.842 3.842 0 1 1 5.439.006 3.839 3.839 0 0 1 -5.439-.008z" fill="#eeefee"/><path d="m100.388 55.679a18.753 18.753 0 0 1 -26.746-26.135c.086-.1.172-.2.263-.3a18.746 18.746 0 0 1 17.717-3.844l-9.333 9.33v7.629l4.962 4.962h7.629l9.333-9.334a18.731 18.731 0 0 1 -3.825 17.692z" fill="#eeefee"/><path d="m46.113 33.434h5.91v43.012h-5.91z" fill="#dbd8dd" transform="matrix(.707 -.707 .707 .707 -24.477 50.788)"/><path d="m80.138 98.9.887.887a9.112 9.112 0 0 0 12.887-12.887l-.887-.887z" fill="#419be9"/><path d="m72.434 65.419 20.591 20.591-12.887 12.89-20.591-20.594a.508.508 0 0 1 0-.716l12.171-12.171a.5.5 0 0 1 .716 0z" fill="#69b0ee"/><g fill="#419be9"><rect height="22.609" rx="1.096" transform="matrix(.707 -.707 .707 .707 -32.434 79.959)" width="2.192" x="79.206" y="67.826"/><rect height="22.609" rx="1.096" transform="matrix(.707 -.707 .707 .707 -35.954 78.501)" width="2.192" x="75.686" y="71.346"/><rect height="22.609" rx="1.096" transform="matrix(.707 -.707 .707 .707 -39.474 77.043)" width="2.192" x="72.166" y="74.866"/></g><path d="m36.952 38.642-1.63-5.023-8.14-4.747-2.091 2.091-2.091 2.091 4.747 8.14 5.023 1.63z" fill="#dbd8dd"/><rect fill="#419be9" height="3.983" rx="1.992" transform="matrix(-.707 .707 -.707 -.707 162.549 75.634)" width="23.025" x="54.098" y="69.49"/></g></svg>