<svg id="Layer_1" enable-background="new 0 0 510 510" height="512" viewBox="0 0 510 510" width="512" xmlns="http://www.w3.org/2000/svg"><g id="XMLID_1906_"><path id="XMLID_1940_" d="m7.5 0v510h172.5l6.9-255-6.9-255c-9.577 0-162.923 0-172.5 0z" fill="#f2f4f9"/><path id="XMLID_1908_" d="m180 0v510h172.5c0-14.385 0-495.615 0-510z" fill="#dbf0f9"/><path id="XMLID_1982_" d="m217.5 360c0 74.436 60.559 135 135 135l15-135-15-135c-74.436 0-135 60.559-135 135z" fill="#249ec5"/><path id="XMLID_1981_" d="m352.5 225v270c74.44 0 135-60.56 135-135s-60.56-135-135-135z" fill="#2473c5"/><path id="XMLID_1935_" d="m52.5 180h105v30h-105z" fill="#78c4f8"/><path id="XMLID_1934_" d="m52.5 240h105v30h-105z" fill="#78c4f8"/><path id="XMLID_1933_" d="m52.5 300h105v30h-105z" fill="#fdbf00"/><path id="XMLID_1932_" d="m52.5 360h105v30h-105z" fill="#2ee66b"/><path id="XMLID_1910_" d="m52.5 420h105v30h-105z" fill="#78c4f8"/><path id="XMLID_1937_" d="m180 90c-15.411 0-111.987 0-127.5 0 0-10.492 0-19.508 0-30h127.5l7.5 15z" fill="#ff641a"/><path id="XMLID_1936_" d="m180 150c-15.411 0-111.987 0-127.5 0 0-10.492 0-19.508 0-30h127.5l7.5 15z" fill="#5a5a5a"/><path id="XMLID_1939_" d="m180 60h127.5v30h-127.5z" fill="#f03800"/><path id="XMLID_1820_" d="m180 120h127.5v30h-127.5z" fill="#444"/><path id="XMLID_2005_" d="m307.897 375h44.603l15-15-15-15c-14.183 0-30.422 0-44.603 0 3.292-64.412 27.134-105 44.603-105l15-15-15-15c-82.707 0-150 67.287-150 150 0 82.707 67.287 150 150 150l15-15-15-15c-17.268 0-41.272-39.803-44.603-105zm-74.461 0h44.421c1.437 30.711 7.636 65.069 21.298 92.469-34.909-17.399-60.596-51.566-65.719-92.469zm44.42-30c-14.124 0-30.296 0-44.421 0 5.125-40.916 30.822-75.076 65.719-92.469-13.677 27.432-19.864 61.813-21.298 92.469z" fill="#78c4f8"/><path id="XMLID_2001_" d="m352.5 210v30c9.316 0 20.321 11.738 28.719 30.633 8.936 20.107 14.44 46.104 15.886 74.367h-44.605v30h44.604c-1.445 28.263-6.949 54.26-15.886 74.367-8.397 18.896-19.402 30.633-28.718 30.633v30c82.71 0 150-67.29 150-150s-67.29-150-150-150zm119.065 135h-44.421c-1.423-30.418-7.547-64.886-21.298-92.469 35.207 17.549 60.635 51.888 65.719 92.469zm-65.719 122.469c13.751-27.582 19.875-62.049 21.298-92.469h44.421c-5.084 40.581-30.512 74.92-65.719 92.469z" fill="#249ec5"/></g></svg>