<svg id="Layer_1" enable-background="new 0 0 512 512" height="512" viewBox="0 0 512 512" width="512" xmlns="http://www.w3.org/2000/svg"><g><path d="m315.908 504.5h-119.816l19.694-64.343h80.428z" fill="#90abbd"/><path d="m512 107.6v286.56c0 29.5-23.95 53.5-53.38 53.5h-405.24c-29.43 0-53.38-24-53.38-53.5v-286.56c0-29.5 23.95-53.5 53.38-53.5h405.24c29.43 0 53.38 24 53.38 53.5z" fill="#56788b"/><path d="m512 107.6v286.56c0 29.5-23.95 53.5-53.38 53.5h-20c29.43 0 53.38-24 53.38-53.5v-286.56c0-29.5-23.95-53.5-53.38-53.5h20c29.43 0 53.38 24 53.38 53.5z" fill="#415e6f"/><path d="m482.08 106.36v258.04c0 13.1-10.64 23.76-23.72 23.76h-404.72c-13.08 0-23.72-10.66-23.72-23.76v-258.04c0-13.1 10.64-23.76 23.72-23.76h404.72c13.08 0 23.72 10.66 23.72 23.76z" fill="#d9f0f4"/><path d="m482.08 106.36v258.04c0 13.1-10.64 23.76-23.72 23.76h-20c13.08 0 23.72-10.66 23.72-23.76v-258.04c0-13.1-10.64-23.76-23.72-23.76h20c13.08 0 23.72 10.66 23.72 23.76z" fill="#bae1e5"/><path d="m354.717 497h-197.434c-4.142 0-7.5 3.358-7.5 7.5s3.358 7.5 7.5 7.5h197.434c4.142 0 7.5-3.358 7.5-7.5s-3.358-7.5-7.5-7.5z" fill="#56788b"/><path d="m260.91 22.51v90.86c0 12.41-10.1 22.51-22.51 22.51h-44.69l-13.5 19.44c-1.4 2.02-3.7 3.23-6.16 3.23s-4.76-1.21-6.16-3.23l-13.49-19.44h-44.7c-12.41 0-22.51-10.1-22.51-22.51v-90.86c0-12.41 10.1-22.51 22.51-22.51h128.7c12.41 0 22.51 10.1 22.51 22.51z" fill="#ff6b81"/><path d="m260.91 22.51v90.86c0 12.41-10.1 22.51-22.51 22.51h-20c12.41 0 22.51-10.1 22.51-22.51v-90.86c0-12.41-10.1-22.51-22.51-22.51h20c12.41 0 22.51 10.1 22.51 22.51z" fill="#ed2061"/><g fill="#415e6f"><path d="m94.694 410.938h-30.639c-4.142 0-7.5 3.358-7.5 7.5s3.358 7.5 7.5 7.5h30.639c4.142 0 7.5-3.358 7.5-7.5s-3.358-7.5-7.5-7.5z"/><path d="m154.694 410.938h-30.639c-4.142 0-7.5 3.358-7.5 7.5s3.358 7.5 7.5 7.5h30.639c4.142 0 7.5-3.358 7.5-7.5s-3.358-7.5-7.5-7.5z"/></g><path d="m202.321 43.604c-7.789-7.789-20.47-7.783-28.268.016-3.777-3.776-8.796-5.858-14.134-5.862h-.016c-5.334 0-10.349 2.076-14.119 5.847-7.789 7.79-7.782 20.471.016 28.269l24.717 24.717c.977.976 2.256 1.464 3.536 1.464s2.559-.488 3.536-1.464l24.717-24.717c7.797-7.8 7.804-20.481.015-28.27z" fill="#fff"/><g fill="#90abbd"><path d="m94.694 299.4h32.143c4.142 0 7.5-3.358 7.5-7.5s-3.358-7.5-7.5-7.5h-32.143c-4.142 0-7.5 3.358-7.5 7.5s3.358 7.5 7.5 7.5z"/><path d="m146.807 319.4h-52.113c-4.142 0-7.5 3.358-7.5 7.5s3.358 7.5 7.5 7.5h52.113c4.142 0 7.5-3.358 7.5-7.5s-3.358-7.5-7.5-7.5z"/><path d="m420.518 172.515h-32.143c-4.142 0-7.5 3.358-7.5 7.5s3.358 7.5 7.5 7.5h32.143c4.142 0 7.5-3.358 7.5-7.5s-3.358-7.5-7.5-7.5z"/><path d="m428.018 145.015c0-4.142-3.358-7.5-7.5-7.5h-52.113c-4.142 0-7.5 3.358-7.5 7.5s3.358 7.5 7.5 7.5h52.113c4.142 0 7.5-3.358 7.5-7.5z"/></g><path d="m419.86 380.66c0 17.83-14.49 32.33-32.3 32.33h-139.18c-17.81 0-32.3-14.5-32.3-32.33s14.49-32.34 32.3-32.34h2.81l16.87-23.3c1.42-1.95 3.67-3.1 6.08-3.1 2.4 0 4.66 1.15 6.07 3.1l16.88 23.3h90.47c17.81 0 32.3 14.51 32.3 32.34z" fill="#fbdf63"/><path d="m419.86 380.66c0 17.83-14.49 32.33-32.3 32.33h-20c17.81 0 32.3-14.5 32.3-32.33s-14.49-32.34-32.3-32.34h20c17.81 0 32.3 14.51 32.3 32.34z" fill="#ffa402"/><g><g fill="#56788b"><path d="m211.07 222.574h-21.376c-4.142 0-7.5 3.358-7.5 7.5s3.358 7.5 7.5 7.5h21.376c4.142 0 7.5-3.358 7.5-7.5s-3.358-7.5-7.5-7.5z"/><path d="m229.619 247.267c-4.142 0-7.5 3.358-7.5 7.5v36.133c0 4.142 3.358 7.5 7.5 7.5s7.5-3.358 7.5-7.5v-36.133c0-4.142-3.358-7.5-7.5-7.5z"/></g><path d="m220.172 199.085c-9.465 1.274-16.602 9.443-16.602 19.001v23.975c0 9.558 7.137 17.727 16.602 19.001l82.657 11.708v-84.686z" fill="#4dd4f7"/><path d="m311.807 195.074v70c0 8.284-6.706 15-14.978 15-8.272 0-14.978-6.716-14.978-15v-70c0-8.284 6.706-15 14.978-15 8.272 0 14.978 6.716 14.978 15z" fill="#56788b"/></g></g></svg>