<svg height="512pt" viewBox="-11 0 512 512.00008" width="512pt" xmlns="http://www.w3.org/2000/svg"><path d="m463.019531 378.875c17.246094-33.539062 26.980469-71.570312 26.980469-111.875 0-135.3125-109.6875-245-245-245s-245 109.6875-245 245c0 43.804688 11.507812 84.917969 31.648438 120.5zm0 0" fill="#3c2b8e"/><path d="m463.53125 270.160156c-17.953125 8.375-35.070312 14.945313-51.5 19.730469v156.324219c20.914062-19.5 38.417969-42.613282 51.5-68.351563zm0 0" fill="#f9b50b"/><path d="m455.394531 392.582031c-10.125 2.921875-17.109375-6.074219-17.109375-6.074219l-3.761718 35.730469c7.660156-9.335937 14.640624-19.246093 20.871093-29.65625zm0 0" fill="#f79d0d"/><path d="m463.53125 272.179688v-229.664063c0-11.285156-9.230469-20.515625-20.515625-20.515625h-51.5c11.285156 0 20.515625 9.230469 20.515625 20.515625v249.394531c16.429688-4.785156 33.546875-11.355468 51.5-19.730468zm0 0" fill="#2299f2"/><path d="m431.441406 47.644531h-19.410156v398.570313c9.484375-8.84375 18.269531-18.421875 26.253906-28.660156v-363.0625c0-3.78125-3.0625-6.847657-6.84375-6.847657zm0 0" fill="#abe4fe"/><path d="m412.03125 386.808594v59.40625c9.484375-8.84375 18.269531-18.421875 26.253906-28.660156v-31.046876c0 3.003907-1.046875 5.910157-2.941406 8.242188-8.191406 10.09375-23.3125 4.039062-23.3125-7.941406zm0 0" fill="#82c6f9"/><path d="m412.03125 289.875c-94.472656 27.527344-166.367188-3.429688-246.074219-83.652344-43.796875-44.082031-91.472656-61.769531-134.859375-66.183594v246.472657c41.921875 74.871093 121.996094 125.488281 213.902344 125.488281 65.050781 0 124.171875-25.363281 168.039062-66.726562 0-39.640626 0-96.808594 0-155.6875-.335937.097656-.675781.210937-1.007812.304687zm0 0" fill="#fbc840"/><path d="m378.699219 417.933594h-313.277344c-5.988281 0-11.636719-1.511719-16.589844-4.167969 44.683594 59.636719 115.914063 98.234375 196.167969 98.234375 65.050781 0 124.171875-25.363281 168.039062-66.726562 0-15.71875 0-34.199219 0-54.441407-3.730468 15.496094-17.742187 27.101563-34.339843 27.101563zm0 0" fill="#f9b50b"/><path d="m413.039062 42.515625c0-11.285156-9.230468-20.515625-20.515624-20.515625-13.332032 0-330.578126 0-349.308594 0-6.664063 0-12.117188 5.453125-12.117188 12.117188v107.941406c43.386719 4.414062 91.0625 22.101562 134.859375 66.183594 79.992188 80.507812 152.113281 111.40625 247.082031 83.363281 0-117.464844 0-242.453125 0-249.089844zm0 0" fill="#52b0f5"/><path d="m31.097656 386.511719c13.554688 24.207031 31.09375 45.875 51.738282 64.121093v-298.765624c-17.570313-6.425782-34.976563-10.125-51.738282-11.832032zm0 0" fill="#f9b50b"/><path d="m65.421875 417.933594c-5.980469 0-11.625-1.507813-16.574219-4.160156 10.054688 13.414062 21.445313 25.773437 33.988282 36.859374v-32.699218zm0 0" fill="#f79d0d"/><path d="m70.71875 22h-27.503906c-6.664063 0-12.117188 5.453125-12.117188 12.117188v107.941406c16.761719 1.703125 34.167969 5.398437 51.738282 11.824218v-119.765624c0-6.664063-5.453126-12.117188-12.117188-12.117188zm0 0" fill="#2299f2"/><g fill="#554cbf"><path d="m217.410156 339.554688c-4.183594 0-7.574218 3.390624-7.574218 7.574218v44.558594c0 6.1875-5.03125 11.21875-11.214844 11.21875-6.1875 0-11.21875-5.03125-11.21875-11.21875v-44.558594c0-4.183594-3.390625-7.574218-7.574219-7.574218s-7.574219 3.390624-7.574219 7.574218v44.558594c0 14.539062 11.828125 26.367188 26.367188 26.367188 14.535156 0 26.363281-11.828126 26.363281-26.367188v-44.558594c0-4.183594-3.390625-7.574218-7.574219-7.574218zm0 0"/><path d="m284.769531 339.554688h-13.917969c-4.183593 0-7.574218 3.390624-7.574218 7.574218v63.351563c0 4.183593 3.390625 7.574219 7.574218 7.574219h13.917969c17.222657 0 31.238281-14.011719 31.238281-31.238282v-16.023437c0-17.226563-14.015624-31.238281-31.238281-31.238281zm16.089844 47.261718c0 8.871094-7.21875 16.089844-16.089844 16.089844h-6.34375v-48.203125h6.34375c8.871094 0 16.089844 7.21875 16.089844 16.089844zm0 0"/><path d="m243.59375 339.554688c-4.183594 0-7.574219 3.390624-7.574219 7.574218v63.351563c0 4.183593 3.390625 7.574219 7.574219 7.574219s7.574219-3.390626 7.574219-7.574219v-63.351563c0-4.183594-3.390625-7.574218-7.574219-7.574218zm0 0"/><path d="m369.511719 387.324219c4.183593 0 7.574219-3.390625 7.574219-7.574219s-3.390626-7.574219-7.574219-7.574219h-30.003907v-17.472656h30.003907c4.183593 0 7.574219-3.390625 7.574219-7.574219s-3.390626-7.574218-7.574219-7.574218h-37.578125c-4.183594 0-7.574219 3.390624-7.574219 7.574218v63.351563c0 4.179687 3.390625 7.574219 7.574219 7.574219h37.578125c4.183593 0 7.574219-3.394532 7.574219-7.574219 0-4.183594-3.390626-7.574219-7.574219-7.574219h-30.003907v-15.582031zm0 0"/><path d="m157.402344 373.25h-12.738282c-4.183593 0-7.574218 3.390625-7.574218 7.574219 0 4.183593 3.390625 7.574219 7.574218 7.574219h5.167969v3.289062c0 6.1875-5.03125 11.21875-11.21875 11.21875-6.183593 0-11.214843-5.03125-11.214843-11.21875v-25.769531c0-6.183594 5.03125-11.214844 11.214843-11.214844 4.660157 0 8.886719 2.933594 10.515625 7.296875 1.460938 3.917969 5.824219 5.910156 9.742188 4.445312 3.921875-1.460937 5.910156-5.824218 4.449218-9.742187-3.828124-10.257813-13.753906-17.148437-24.707031-17.148437-14.535156 0-26.363281 11.828124-26.363281 26.363281v25.769531c0 14.539062 11.824219 26.367188 26.363281 26.367188 14.539063 0 26.367188-11.828126 26.367188-26.367188v-10.863281c-.003907-4.183594-3.390625-7.574219-7.578125-7.574219zm0 0"/></g><path d="m266.410156 265.125c-.082031 0-.164062 0-.25-.003906-4.179687-.132813-7.460937-3.632813-7.324218-7.8125l1.117187-34.585938c.136719-4.179687 3.648437-7.457031 7.816406-7.328125 4.179688.136719 7.457031 3.632813 7.324219 7.816407l-1.117188 34.585937c-.132812 4.097656-3.496093 7.328125-7.566406 7.328125zm0 0" fill="#d9f5ff"/><path d="m229.605469 265.125c-4.070313 0-7.433594-3.230469-7.566407-7.328125l-1.113281-34.585937c-.136719-4.179688 3.144531-7.679688 7.324219-7.8125 4.21875-.136719 7.679688 3.144531 7.8125 7.324218l1.117188 34.585938c.132812 4.179687-3.144532 7.679687-7.324219 7.816406-.085938 0-.167969 0-.25 0zm0 0" fill="#d9f5ff"/><path d="m268.484375 253.484375h-40.953125c-3.78125 0-6.871094 3.09375-6.871094 6.871094v28.351562c0 3.777344 3.089844 6.871094 6.871094 6.871094h40.953125c3.78125 0 6.875-3.09375 6.875-6.871094v-28.351562c0-3.777344-3.09375-6.871094-6.875-6.871094zm0 0" fill="#f7577a"/><path d="m247.746094 288.707031v-28.351562c0-3.777344 3.09375-6.871094 6.871094-6.871094h-27.085938c-3.78125 0-6.871094 3.09375-6.871094 6.871094v28.351562c0 3.777344 3.09375 6.871094 6.871094 6.871094h27.089844c-3.78125 0-6.875-3.09375-6.875-6.871094zm0 0" fill="#d93a59"/><path d="m216.957031 240.824219c-1.730469-.125-3.414062-.019531-5.027343.277343-2.578126.480469-5.269532-.425781-6.734376-2.601562-4.824218-7.175781-13.003906-11.898438-22.296874-11.898438-11.390626 0-21.117188 7.082032-25.035157 17.085938-1.21875 3.113281-4.441406 4.871094-7.703125 4.144531-1.273437-.285156-2.605468-.421875-3.976562-.390625-8.578125.207032-15.734375 7.257813-16.050782 15.835938-.347656 9.378906 7.152344 17.089844 16.453126 17.089844h68.929687c11.171875 0 20.183594-9.253907 19.785156-20.511719-.347656-9.976563-8.382812-18.308594-18.34375-19.03125zm0 0" fill="#abe4fe"/><path d="m172.207031 275.480469c1.085938-.835938 2.238281-1.511719 3.433594-2.039063 3.0625-1.34375 4.617187-4.667968 3.757813-7.898437-2.765626-10.378907.882812-21.847657 10.0625-28.589844 3.105468-2.28125 6.539062-3.78125 10.074218-4.5625-4.574218-3.621094-10.347656-5.789063-16.636718-5.789063-11.386719 0-21.117188 7.085938-25.03125 17.085938-1.21875 3.113281-4.441407 4.871094-7.707032 4.144531-1.273437-.285156-2.605468-.421875-3.972656-.390625-8.582031.207032-15.734375 7.257813-16.050781 15.835938-.347657 9.378906 7.152343 17.09375 16.453125 17.09375h21.417968c1.039063-1.855469 2.441407-3.53125 4.199219-4.890625zm0 0" fill="#82c6f9"/><path d="m246.792969 70.382812c-36.535157.574219-66.613281 30.0625-67.859375 66.582032-.867188 25.355468 11.949218 47.777344 31.632812 60.464844 6.4375 4.148437 10.25 11.351562 10.25 19.011718v3.140625c0 3.683594 2.988282 6.671875 6.671875 6.671875h40.828125c3.683594 0 6.671875-2.988281 6.671875-6.671875v-3.140625c0-7.667968 3.828125-14.871094 10.273438-19.027344 19.042969-12.28125 31.652343-33.679687 31.652343-58.027343 0-38.484375-31.496093-69.613281-70.121093-69.003907zm0 0" fill="#fbc840"/><path d="m298.503906 163.1875c-4.515625 0-8.695312-1.382812-12.167968-3.738281-2.234376-1.515625-5.230469-1.359375-7.105469.585937-7.917969 8.207032-19.023438 13.316406-31.328125 13.316406-12.289063 0-23.382813-5.09375-31.292969-13.285156-1.871094-1.933594-4.859375-2.09375-7.089844-.585937-3.460937 2.335937-7.628906 3.707031-12.121093 3.707031-6.664063 0-12.625-2.996094-16.621094-7.714844 4.191406 17.535156 15.070312 32.46875 29.792968 41.957032 6.4375 4.148437 10.246094 11.351562 10.246094 19.011718v3.140625c0 3.683594 2.988282 6.671875 6.671875 6.671875h40.828125c3.6875 0 6.671875-2.988281 6.671875-6.671875v-3.140625c0-7.667968 3.832031-14.867187 10.273438-19.023437 14.667969-9.460938 25.511719-24.332031 29.722656-41.789063-3.992187 4.625-9.890625 7.558594-16.480469 7.558594zm0 0" fill="#f9b50b"/><path d="m247.328125 70.382812c-18.898437.574219-34.453125 30.0625-35.097656 66.582032-.449219 25.355468 6.179687 47.777344 16.363281 60.464844 3.328125 4.148437 5.300781 11.351562 5.300781 19.011718v3.140625c0 3.683594 1.542969 6.671875 3.449219 6.671875h21.117188c1.90625 0 3.449218-2.988281 3.449218-6.671875v-3.140625c0-7.667968 1.984375-14.871094 5.316406-19.027344 9.847657-12.28125 16.371094-33.679687 16.371094-58.027343 0-38.484375-16.292968-69.613281-36.269531-69.003907zm0 0" fill="#f9b50b"/><path d="m279.230469 160.035156c-7.917969 8.207032-19.023438 13.316406-31.328125 13.316406-12.289063 0-23.382813-5.097656-31.292969-13.285156-.832031-.859375-1.886719-1.347656-2.992187-1.515625 2.417968 16.195313 7.8125 29.953125 14.976562 38.878907 3.328125 4.148437 5.300781 11.351562 5.300781 19.011718v3.140625c0 3.683594 1.542969 6.671875 3.449219 6.671875h21.117188c1.90625 0 3.449218-2.988281 3.449218-6.671875v-3.140625c0-7.667968 1.984375-14.871094 5.316406-19.027344 7.160157-8.929687 12.550782-22.695312 14.964844-38.894531-1.097656.171875-2.136718.660157-2.960937 1.515625zm0 0" fill="#f79d0d"/><path d="m464.164062 64.785156-107.113281-61.84375c-10.519531-6.074218-24.089843-2.433594-30.164062 8.082032l-68.136719 118.019531c-6.070312 10.515625-2.433594 24.089843 8.082031 30.160156l107.113281 61.84375c10.519532 6.070313 24.089844 2.433594 30.164063-8.082031l68.136719-118.019532c6.074218-10.515624 2.4375-24.089843-8.082032-30.160156zm0 0" fill="#abe4fe"/><path d="m399.210938 27.28125-42.160157-24.339844c-10.519531-6.074218-24.089843-2.433594-30.164062 8.082032l-68.136719 118.019531c-6.070312 10.515625-2.433594 24.089843 8.082031 30.160156l40.898438 23.613281 79.011719-136.769531c.734374-1.273437.984374-2.789063.640624-4.21875-3.324218-13.890625 11.824219-14.546875 11.828126-14.546875zm0 0" fill="#82c6f9"/><path d="m454.566406 82.335938-107.917968-62.304688c-.773438-.449219-1.761719-.183594-2.210938.589844l-61.144531 105.90625c-.445313.773437-.183594 1.765625.59375 2.210937l107.914062 62.304688c.773438.449219 1.765625.183593 2.210938-.589844l61.144531-105.90625c.449219-.773437.183594-1.765625-.589844-2.210937zm0 0" fill="#52b0f5"/><path d="m346.648438 20.03125c-.773438-.449219-1.761719-.183594-2.210938.589844l-61.144531 105.90625c-.445313.773437-.179688 1.765625.59375 2.210937l41.304687 23.847657 61.546875-106.539063c.433594-.75.675781-1.585937.75-2.4375zm0 0" fill="#2299f2"/><path d="m372.394531 125.492188c-9.335937 2.5-18.929687-3.035157-21.429687-12.371094l-2.3125-8.628906c-2.5-9.332032-12.09375-14.871094-21.429688-12.371094l-28.46875 7.628906-15.460937 26.777344c-.445313.773437-.179688 1.765625.59375 2.210937l107.917969 62.304688c.773437.449219 1.761718.183593 2.207031-.589844l48.324219-83.703125zm0 0" fill="#2299f2"/><path d="m348.652344 104.492188c-2.5-9.332032-12.09375-14.871094-21.429688-12.371094l-28.46875 7.628906-15.460937 26.777344c-.445313.773437-.179688 1.765625.59375 2.210937l41.304687 23.847657 24.832032-42.980469zm0 0" fill="#1588e8"/><path d="m478.976562 121.179688-107.113281-61.84375c-10.515625-6.070313-24.089843-2.433594-30.164062 8.082031l-68.136719 118.019531c-6.070312 10.519531-2.433594 24.089844 8.082031 30.164062l107.117188 61.839844c10.515625 6.074219 24.089843 2.4375 30.160156-8.082031l68.136719-118.015625c6.074218-10.519531 2.4375-24.089844-8.082032-30.164062zm0 0" fill="#d9f5ff"/><path d="m469.378906 138.730469-107.917968-62.304688c-.773438-.445312-1.761719-.183593-2.207032.59375l-61.148437 105.90625c-.445313.773438-.179688 1.761719.59375 2.207031l107.917969 62.308594c.773437.445313 1.761718.179688 2.207031-.59375l61.148437-105.90625c.445313-.773437.179688-1.761718-.59375-2.210937zm0 0" fill="#52b0f5"/><path d="m133.417969 410.132812c0-3.242187 1.949219-6.023437 4.738281-7.25-5.972656-.242187-10.757812-5.164062-10.757812-11.195312v-25.769531c0-6.03125 4.785156-10.949219 10.757812-11.191407-2.789062-1.226562-4.738281-4.011718-4.738281-7.253906 0-4.039062 3.027343-7.363281 6.933593-7.851562-.578124-.039063-1.15625-.066406-1.738281-.066406-14.535156 0-26.363281 11.828124-26.363281 26.363281v25.769531c0 14.539062 11.824219 26.367188 26.363281 26.367188.589844 0 1.175781-.027344 1.757813-.066407-3.917969-.476562-6.953125-3.808593-6.953125-7.855469zm0 0" fill="#483ba8"/><path d="m194.917969 410.132812c0-3.269531 1.980469-6.074218 4.808593-7.285156-.363281.039063-.734374.058594-1.105468.058594-6.183594 0-11.21875-5.03125-11.21875-11.21875v-44.558594c0-4.183594-3.390625-7.574218-7.574219-7.574218-4.179687 0-7.570313 3.390624-7.570313 7.574218v44.558594c0 14.539062 11.824219 26.367188 26.363282 26.367188.925781 0 1.839844-.050782 2.742187-.144532-3.667969-.691406-6.445312-3.90625-6.445312-7.777344zm0 0" fill="#483ba8"/><path d="m243.59375 377.386719c-3.566406 0-6.582031-2.359375-7.574219-5.601563v38.695313c0 4.183593 3.390625 7.574219 7.574219 7.574219s7.574219-3.390626 7.574219-7.574219v-38.695313c-.992188 3.242188-4.007813 5.601563-7.574219 5.601563zm0 0" fill="#483ba8"/><path d="m345.160156 410.367188c0-3.449219 2.207032-6.375 5.285156-7.460938h-10.941406v-15.582031h11.210938c-3.21875-1.007813-5.554688-4.011719-5.554688-7.5625 0-3.585938 2.382813-6.609375 5.652344-7.585938h-11.304688v-17.472656h10.894532c-3.054688-1.101563-5.242188-4.015625-5.242188-7.445313 0-3.746093 2.601563-6.878906 6.097656-7.703124h-19.324218c-4.183594 0-7.574219 3.390624-7.574219 7.574218v63.351563c0 4.179687 3.390625 7.574219 7.574219 7.574219h19.265625c-3.464844-.847657-6.039063-3.960938-6.039063-7.6875zm0 0" fill="#483ba8"/><path d="m281.722656 410.132812c0-3.34375 2.074219-6.195312 5.003906-7.359374-.644531.078124-1.292968.132812-1.957031.132812h-6.34375v-48.203125h6.34375c.664063 0 1.3125.050781 1.957031.128906-2.929687-1.160156-5.003906-4.015625-5.003906-7.359375 0-3.816406 2.699219-7 6.292969-7.75-1.066406-.113281-2.152344-.167968-3.246094-.167968h-13.917969c-4.183593 0-7.574218 3.390624-7.574218 7.574218v63.347656c0 4.183594 3.390625 7.574219 7.574218 7.574219h13.917969c1.09375 0 2.179688-.058593 3.246094-.167969-3.59375-.75-6.292969-3.933593-6.292969-7.75zm0 0" fill="#483ba8"/><path d="m414.023438 83.679688-42.160157-24.34375c-10.515625-6.070313-24.089843-2.433594-30.164062 8.082031l-68.136719 118.019531c-6.070312 10.519531-2.433594 24.089844 8.082031 30.164062l40.898438 23.609376 79.011719-136.765626c.734374-1.277343.984374-2.789062.640624-4.222656-3.324218-13.886718 11.824219-14.542968 11.828126-14.542968zm0 0" fill="#abe4fe"/><path d="m361.460938 76.425781c-.773438-.445312-1.761719-.183593-2.207032.59375l-61.148437 105.90625c-.445313.773438-.179688 1.761719.59375 2.207031l41.304687 23.847657 61.550782-106.539063c.433593-.75.671874-1.585937.746093-2.4375zm0 0" fill="#2299f2"/><path d="m387.207031 181.890625c-9.335937 2.5-18.929687-3.039063-21.429687-12.375l-2.3125-8.625c-2.5-9.335937-12.09375-14.875-21.429688-12.375l-28.46875 7.628906-15.460937 26.78125c-.445313.773438-.179688 1.761719.59375 2.207031l107.917969 62.308594c.773437.445313 1.761718.179688 2.207031-.59375l48.324219-83.699218zm0 0" fill="#83d912"/><path d="m395.046875 119.773438c-6.757813-3.902344-15.402344-1.585938-19.304687 5.171874-3.902344 6.757813-1.585938 15.402344 5.171874 19.304688 6.761719 3.902344 15.402344 1.585938 19.304688-5.171875 3.902344-6.761719 1.585938-15.402344-5.171875-19.304687zm0 0" fill="#fbc840"/><path d="m390.675781 136.089844c-4.664062-2.695313-6.261719-8.660156-3.570312-13.324219 1.179687-2.042969 2.988281-3.5 5.039062-4.261719-6.160156-1.90625-13.039062.605469-16.398437 6.429688-3.902344 6.757812-1.589844 15.402344 5.171875 19.304687 6.761719 3.902344 15.402343 1.585938 19.304687-5.171875.722656-1.253906 1.230469-2.570312 1.539063-3.910156-3.050781 2.519531-7.457031 3.027344-11.085938.933594zm0 0" fill="#f9b50b"/><path d="m364.835938 166.003906-1.371094-5.113281c-2.5-9.335937-12.09375-14.875-21.429688-12.371094l-28.46875 7.625-15.460937 26.78125c-.445313.773438-.179688 1.761719.59375 2.210938l41.304687 23.847656c-3.660156-35.519531 24.832032-42.980469 24.832032-42.980469zm0 0" fill="#5bbf02"/></svg>