<svg width="800" height="600" xmlns="http://www.w3.org/2000/svg">
 <g>
  <title>Layer 1</title>
  <g stroke="null" id="svg_5">
   <path stroke="null" id="svg_4" d="m400.00001,299.99999c74.96096,0 135.71433,-60.75337 135.71433,-135.71433s-60.75337,-135.71433 -135.71433,-135.71433s-135.71433,60.75337 -135.71433,135.71433s60.75337,135.71433 135.71433,135.71433zm95.00003,33.92858l-17.70648,0c-23.53795,10.81474 -49.72658,16.96429 -77.29355,16.96429s-53.64957,-6.14956 -77.29355,-16.96429l-17.70648,0c-78.6719,0 -142.50005,63.82815 -142.50005,142.50005l0,44.10716c0,28.09711 22.79577,50.89287 50.89287,50.89287l373.21442,0c28.09711,0 50.89287,-22.79577 50.89287,-50.89287l0,-44.10716c0,-78.6719 -63.82815,-142.50005 -142.50005,-142.50005z" fill="#666666"/>
  </g>
 </g>

</svg>